<?xml version="1.0" standalone="no"?>
<!DOCTYPE svg PUBLIC "-//W3C//DTD SVG 20010904//EN"
 "http://www.w3.org/TR/2001/REC-SVG-20010904/DTD/svg10.dtd">
<svg version="1.0" xmlns="http://www.w3.org/2000/svg"
 width="700.000000pt" height="700.000000pt" viewBox="0 0 700.000000 700.000000"
 preserveAspectRatio="xMidYMid meet">
<metadata>
Created by potrace 1.14, written by Peter Selinger 2001-2017
</metadata>
<g transform="translate(0.000000,700.000000) scale(0.100000,-0.100000)"
fill="#000000" stroke="none">
<path d="M3445 6935 l-25 -24 0 -376 0 -376 27 -25 c31 -29 74 -27 105 4 18
18 19 40 20 396 l1 376 -23 25 c-31 33 -73 33 -105 0z"/>
<path d="M1055 5945 c-53 -52 -49 -58 241 -349 228 -228 271 -266 296 -266 41
0 64 15 76 49 7 21 7 36 -2 53 -7 13 -129 140 -271 281 -281 280 -288 285
-340 232z"/>
<path d="M5588 5703 c-234 -234 -268 -271 -268 -298 1 -53 51 -91 98 -74 12 5
138 125 281 266 183 183 259 266 263 286 8 40 -33 87 -75 87 -27 0 -63 -32
-299 -267z"/>
<path d="M3437 5554 c-1 -1 -42 -4 -92 -8 -168 -11 -265 -29 -441 -81 -153
-45 -280 -100 -449 -195 -238 -133 -499 -382 -668 -636 -144 -218 -264 -508
-302 -734 -3 -19 -8 -42 -10 -50 -2 -8 -7 -40 -10 -70 -3 -30 -8 -73 -11 -95
-3 -22 -6 -98 -6 -170 -1 -328 65 -617 208 -910 157 -323 412 -614 712 -810
20 -14 42 -29 48 -34 6 -5 58 -34 115 -64 246 -131 516 -211 786 -233 164 -14
384 -7 504 16 30 6 68 13 84 16 135 23 361 101 500 172 302 154 531 344 729
607 457 606 539 1423 211 2113 -38 79 -138 253 -158 274 -7 7 -20 24 -29 38
-61 97 -223 271 -353 380 -222 186 -501 330 -795 409 -75 20 -94 24 -205 41
-89 14 -358 32 -368 24z"/>
<path d="M65 3555 c-32 -31 -33 -74 -1 -104 24 -22 25 -22 377 -22 195 0 364
0 375 0 62 2 91 79 48 126 l-23 25 -376 0 -376 0 -24 -25z"/>
<path d="M6139 3567 c-64 -49 -32 -136 50 -138 53 -1 639 -1 683 0 71 2 105
82 55 129 -23 22 -27 22 -398 22 -278 -1 -378 -4 -390 -13z"/>
<path d="M1297 1412 c-232 -233 -267 -272 -267 -298 0 -46 40 -79 93 -75 27 2
543 522 549 554 5 25 -12 63 -36 79 -6 4 -25 8 -41 8 -27 0 -65 -35 -298 -268z"/>
<path d="M5345 1655 c-53 -52 -49 -58 241 -349 237 -237 270 -266 298 -266 18
0 40 6 49 12 23 17 37 70 25 91 -5 10 -126 134 -270 277 -284 284 -291 288
-343 235z"/>
<path d="M3471 889 c-51 -20 -50 -19 -51 -415 0 -358 1 -372 20 -397 11 -14
30 -27 43 -29 28 -5 75 21 83 45 3 10 6 184 6 387 -1 344 -2 371 -19 388 -24
26 -52 33 -82 21z"/>
</g>
</svg>
