<svg xmlns="http://www.w3.org/2000/svg" xmlns:xlink="http://www.w3.org/1999/xlink" version="1.1" width="256" height="256" viewBox="0 0 256 256" xml:space="preserve">

<defs>
</defs>
<g style="stroke: none; stroke-width: 0; stroke-dasharray: none; stroke-linecap: butt; stroke-linejoin: miter; stroke-miterlimit: 10; fill: none; fill-rule: nonzero; opacity: 1;" transform="translate(1.4065934065934016 1.4065934065934016) scale(2.81 2.81)" >
	<path d="M 9.476 24.843 c -0.034 -0.513 -0.058 -1.029 -0.058 -1.55 c 0 -12.714 10.307 -23.021 23.021 -23.021 c 9.198 0 17.133 5.396 20.82 13.193 c 2.777 -1.972 6.162 -3.142 9.827 -3.142 c 8.48 0 15.49 6.212 16.778 14.329 C 85.703 26.249 90 31.578 90 37.924 c 0 7.607 -6.167 13.774 -13.774 13.774 H 13.774 C 6.167 51.697 0 45.531 0 37.924 C 0 31.819 3.976 26.65 9.476 24.843 z" style="stroke: none; stroke-width: 1; stroke-dasharray: none; stroke-linecap: butt; stroke-linejoin: miter; stroke-miterlimit: 10; fill: rgb(98,195,247); fill-rule: nonzero; opacity: 1;" transform=" matrix(1 0 0 1 0 0) " stroke-linecap="round" />
	<path d="M 10.733 71.319 c -0.11 0 -0.223 -0.018 -0.334 -0.056 c -0.534 -0.184 -0.817 -0.766 -0.633 -1.3 l 3.291 -9.546 c 0.183 -0.533 0.763 -0.819 1.3 -0.633 c 0.534 0.184 0.817 0.766 0.633 1.3 l -3.291 9.546 C 11.554 71.054 11.157 71.319 10.733 71.319 z" style="stroke: none; stroke-width: 1; stroke-dasharray: none; stroke-linecap: butt; stroke-linejoin: miter; stroke-miterlimit: 10; fill: rgb(123,216,247); fill-rule: nonzero; opacity: 1;" transform=" matrix(1 0 0 1 0 0) " stroke-linecap="round" />
	<path d="M 4.385 89.728 c -0.11 0 -0.223 -0.018 -0.334 -0.056 c -0.534 -0.184 -0.817 -0.766 -0.633 -1.3 l 3.291 -9.546 c 0.183 -0.534 0.763 -0.819 1.3 -0.633 c 0.534 0.184 0.817 0.766 0.633 1.3 l -3.291 9.546 C 5.206 89.463 4.81 89.728 4.385 89.728 z" style="stroke: none; stroke-width: 1; stroke-dasharray: none; stroke-linecap: butt; stroke-linejoin: miter; stroke-miterlimit: 10; fill: rgb(123,216,247); fill-rule: nonzero; opacity: 1;" transform=" matrix(1 0 0 1 0 0) " stroke-linecap="round" />
	<path d="M 17.433 81.547 c -0.11 0 -0.223 -0.018 -0.334 -0.056 c -0.534 -0.184 -0.817 -0.766 -0.633 -1.3 l 3.291 -9.546 c 0.183 -0.534 0.761 -0.82 1.3 -0.633 c 0.534 0.184 0.817 0.766 0.633 1.3 L 18.4 80.857 C 18.254 81.281 17.858 81.547 17.433 81.547 z" style="stroke: none; stroke-width: 1; stroke-dasharray: none; stroke-linecap: butt; stroke-linejoin: miter; stroke-miterlimit: 10; fill: rgb(123,216,247); fill-rule: nonzero; opacity: 1;" transform=" matrix(1 0 0 1 0 0) " stroke-linecap="round" />
	<path d="M 31.187 71.319 c -0.11 0 -0.223 -0.018 -0.334 -0.056 c -0.534 -0.184 -0.817 -0.766 -0.633 -1.3 l 3.291 -9.546 c 0.183 -0.533 0.763 -0.819 1.3 -0.633 c 0.534 0.184 0.817 0.766 0.633 1.3 l -3.291 9.546 C 32.008 71.054 31.612 71.319 31.187 71.319 z" style="stroke: none; stroke-width: 1; stroke-dasharray: none; stroke-linecap: butt; stroke-linejoin: miter; stroke-miterlimit: 10; fill: rgb(123,216,247); fill-rule: nonzero; opacity: 1;" transform=" matrix(1 0 0 1 0 0) " stroke-linecap="round" />
	<path d="M 24.84 89.728 c -0.11 0 -0.223 -0.018 -0.334 -0.056 c -0.534 -0.184 -0.817 -0.766 -0.633 -1.3 l 3.291 -9.546 c 0.183 -0.534 0.763 -0.819 1.3 -0.633 c 0.534 0.184 0.817 0.766 0.633 1.3 l -3.291 9.546 C 25.661 89.463 25.264 89.728 24.84 89.728 z" style="stroke: none; stroke-width: 1; stroke-dasharray: none; stroke-linecap: butt; stroke-linejoin: miter; stroke-miterlimit: 10; fill: rgb(123,216,247); fill-rule: nonzero; opacity: 1;" transform=" matrix(1 0 0 1 0 0) " stroke-linecap="round" />
	<path d="M 37.888 81.547 c -0.11 0 -0.223 -0.018 -0.334 -0.056 c -0.534 -0.184 -0.817 -0.766 -0.633 -1.3 l 3.291 -9.546 c 0.183 -0.534 0.761 -0.82 1.3 -0.633 c 0.534 0.184 0.817 0.766 0.633 1.3 l -3.291 9.546 C 38.709 81.281 38.312 81.547 37.888 81.547 z" style="stroke: none; stroke-width: 1; stroke-dasharray: none; stroke-linecap: butt; stroke-linejoin: miter; stroke-miterlimit: 10; fill: rgb(123,216,247); fill-rule: nonzero; opacity: 1;" transform=" matrix(1 0 0 1 0 0) " stroke-linecap="round" />
	<path d="M 51.642 71.319 c -0.111 0 -0.223 -0.018 -0.334 -0.056 c -0.533 -0.184 -0.817 -0.766 -0.633 -1.3 l 3.291 -9.546 c 0.184 -0.534 0.764 -0.816 1.3 -0.633 c 0.533 0.184 0.817 0.766 0.633 1.3 l -3.291 9.546 C 52.463 71.054 52.066 71.319 51.642 71.319 z" style="stroke: none; stroke-width: 1; stroke-dasharray: none; stroke-linecap: butt; stroke-linejoin: miter; stroke-miterlimit: 10; fill: rgb(123,216,247); fill-rule: nonzero; opacity: 1;" transform=" matrix(1 0 0 1 0 0) " stroke-linecap="round" />
	<path d="M 45.294 89.728 c -0.11 0 -0.223 -0.018 -0.334 -0.056 c -0.534 -0.184 -0.817 -0.766 -0.633 -1.3 l 3.291 -9.546 c 0.184 -0.534 0.765 -0.816 1.3 -0.633 c 0.533 0.184 0.817 0.766 0.633 1.3 l -3.291 9.546 C 46.115 89.463 45.719 89.728 45.294 89.728 z" style="stroke: none; stroke-width: 1; stroke-dasharray: none; stroke-linecap: butt; stroke-linejoin: miter; stroke-miterlimit: 10; fill: rgb(123,216,247); fill-rule: nonzero; opacity: 1;" transform=" matrix(1 0 0 1 0 0) " stroke-linecap="round" />
	<path d="M 58.342 81.547 c -0.111 0 -0.223 -0.018 -0.334 -0.056 c -0.533 -0.184 -0.817 -0.766 -0.633 -1.3 l 3.292 -9.546 c 0.184 -0.533 0.764 -0.816 1.3 -0.633 c 0.533 0.184 0.817 0.766 0.633 1.3 l -3.292 9.546 C 59.163 81.281 58.767 81.547 58.342 81.547 z" style="stroke: none; stroke-width: 1; stroke-dasharray: none; stroke-linecap: butt; stroke-linejoin: miter; stroke-miterlimit: 10; fill: rgb(123,216,247); fill-rule: nonzero; opacity: 1;" transform=" matrix(1 0 0 1 0 0) " stroke-linecap="round" />
	<path d="M 72.096 71.319 c -0.111 0 -0.223 -0.018 -0.334 -0.056 c -0.533 -0.184 -0.817 -0.766 -0.633 -1.3 l 3.291 -9.546 c 0.184 -0.534 0.766 -0.816 1.3 -0.633 c 0.533 0.184 0.817 0.766 0.633 1.3 l -3.291 9.546 C 72.917 71.054 72.521 71.319 72.096 71.319 z" style="stroke: none; stroke-width: 1; stroke-dasharray: none; stroke-linecap: butt; stroke-linejoin: miter; stroke-miterlimit: 10; fill: rgb(123,216,247); fill-rule: nonzero; opacity: 1;" transform=" matrix(1 0 0 1 0 0) " stroke-linecap="round" />
	<path d="M 65.749 89.728 c -0.111 0 -0.223 -0.018 -0.334 -0.056 c -0.533 -0.184 -0.817 -0.766 -0.633 -1.3 l 3.291 -9.546 c 0.184 -0.534 0.766 -0.816 1.3 -0.633 c 0.533 0.184 0.817 0.766 0.633 1.3 l -3.291 9.546 C 66.57 89.463 66.174 89.728 65.749 89.728 z" style="stroke: none; stroke-width: 1; stroke-dasharray: none; stroke-linecap: butt; stroke-linejoin: miter; stroke-miterlimit: 10; fill: rgb(123,216,247); fill-rule: nonzero; opacity: 1;" transform=" matrix(1 0 0 1 0 0) " stroke-linecap="round" />
</g>
</svg>