<svg xmlns="http://www.w3.org/2000/svg" xmlns:xlink="http://www.w3.org/1999/xlink" version="1.1" width="256" height="256" viewBox="0 0 256 256" xml:space="preserve">

<defs>
</defs>
<g style="stroke: none; stroke-width: 0; stroke-dasharray: none; stroke-linecap: butt; stroke-linejoin: miter; stroke-miterlimit: 10; fill: none; fill-rule: nonzero; opacity: 1;" transform="translate(1.4065934065934016 1.4065934065934016) scale(2.81 2.81)" >
	<circle cx="24.504" cy="85.844" r="3.684" style="stroke: none; stroke-width: 1; stroke-dasharray: none; stroke-linecap: butt; stroke-linejoin: miter; stroke-miterlimit: 10; fill: rgb(123,216,247); fill-rule: nonzero; opacity: 1;" transform="  matrix(1 0 0 1 0 0) "/>
	<circle cx="45.004" cy="85.844" r="3.684" style="stroke: none; stroke-width: 1; stroke-dasharray: none; stroke-linecap: butt; stroke-linejoin: miter; stroke-miterlimit: 10; fill: rgb(123,216,247); fill-rule: nonzero; opacity: 1;" transform="  matrix(1 0 0 1 0 0) "/>
	<circle cx="65.45400000000001" cy="85.844" r="3.684" style="stroke: none; stroke-width: 1; stroke-dasharray: none; stroke-linecap: butt; stroke-linejoin: miter; stroke-miterlimit: 10; fill: rgb(123,216,247); fill-rule: nonzero; opacity: 1;" transform="  matrix(1 0 0 1 0 0) "/>
	<path d="M 9.476 25.046 c -0.034 -0.513 -0.058 -1.029 -0.058 -1.55 c 0 -12.714 10.307 -23.021 23.021 -23.021 c 9.198 0 17.133 5.396 20.82 13.193 c 2.777 -1.972 6.162 -3.142 9.827 -3.142 c 8.48 0 15.49 6.212 16.778 14.329 C 85.703 26.452 90 31.781 90 38.127 c 0 7.607 -6.167 13.774 -13.774 13.774 H 13.774 C 6.167 51.901 0 45.734 0 38.127 C 0 32.022 3.976 26.853 9.476 25.046 z" style="stroke: none; stroke-width: 1; stroke-dasharray: none; stroke-linecap: butt; stroke-linejoin: miter; stroke-miterlimit: 10; fill: rgb(67,144,179); fill-rule: nonzero; opacity: 1;" transform=" matrix(1 0 0 1 0 0) " stroke-linecap="round" />
	<path d="M 65.455 77.659 c -0.565 0 -1.023 -0.457 -1.023 -1.023 V 60.954 c 0 -0.565 0.457 -1.023 1.023 -1.023 c 0.565 0 1.023 0.457 1.023 1.023 v 15.682 C 66.477 77.202 66.02 77.659 65.455 77.659 z" style="stroke: none; stroke-width: 1; stroke-dasharray: none; stroke-linecap: butt; stroke-linejoin: miter; stroke-miterlimit: 10; fill: rgb(123,216,247); fill-rule: nonzero; opacity: 1;" transform=" matrix(1 0 0 1 0 0) " stroke-linecap="round" />
	<path d="M 55.227 81.75 c -0.565 0 -1.023 -0.457 -1.023 -1.023 v -9.546 c 0 -0.565 0.457 -1.023 1.023 -1.023 s 1.023 0.457 1.023 1.023 v 9.546 C 56.25 81.293 55.793 81.75 55.227 81.75 z" style="stroke: none; stroke-width: 1; stroke-dasharray: none; stroke-linecap: butt; stroke-linejoin: miter; stroke-miterlimit: 10; fill: rgb(123,216,247); fill-rule: nonzero; opacity: 1;" transform=" matrix(1 0 0 1 0 0) " stroke-linecap="round" />
	<path d="M 45 77.659 c -0.565 0 -1.023 -0.457 -1.023 -1.023 V 60.954 c 0 -0.565 0.458 -1.023 1.023 -1.023 s 1.023 0.457 1.023 1.023 v 15.682 C 46.023 77.202 45.565 77.659 45 77.659 z" style="stroke: none; stroke-width: 1; stroke-dasharray: none; stroke-linecap: butt; stroke-linejoin: miter; stroke-miterlimit: 10; fill: rgb(123,216,247); fill-rule: nonzero; opacity: 1;" transform=" matrix(1 0 0 1 0 0) " stroke-linecap="round" />
	<path d="M 34.773 81.75 c -0.565 0 -1.023 -0.457 -1.023 -1.023 v -9.546 c 0 -0.565 0.458 -1.023 1.023 -1.023 s 1.023 0.457 1.023 1.023 v 9.546 C 35.795 81.293 35.338 81.75 34.773 81.75 z" style="stroke: none; stroke-width: 1; stroke-dasharray: none; stroke-linecap: butt; stroke-linejoin: miter; stroke-miterlimit: 10; fill: rgb(123,216,247); fill-rule: nonzero; opacity: 1;" transform=" matrix(1 0 0 1 0 0) " stroke-linecap="round" />
	<path d="M 24.545 77.659 c -0.565 0 -1.023 -0.457 -1.023 -1.023 V 60.954 c 0 -0.565 0.458 -1.023 1.023 -1.023 c 0.565 0 1.023 0.457 1.023 1.023 v 15.682 C 25.568 77.202 25.11 77.659 24.545 77.659 z" style="stroke: none; stroke-width: 1; stroke-dasharray: none; stroke-linecap: butt; stroke-linejoin: miter; stroke-miterlimit: 10; fill: rgb(123,216,247); fill-rule: nonzero; opacity: 1;" transform=" matrix(1 0 0 1 0 0) " stroke-linecap="round" />
</g>
</svg>