<svg xmlns="http://www.w3.org/2000/svg" xmlns:xlink="http://www.w3.org/1999/xlink" version="1.1" width="256" height="256" viewBox="0 0 256 256" xml:space="preserve">

<defs>
</defs>
<g style="stroke: none; stroke-width: 0; stroke-dasharray: none; stroke-linecap: butt; stroke-linejoin: miter; stroke-miterlimit: 10; fill: none; fill-rule: nonzero; opacity: 1;" transform="translate(1.4065934065934016 1.4065934065934016) scale(2.81 2.81)" >
	<path d="M 76.497 26.749 c -6.871 3.525 -15.298 0.812 -18.822 -6.058 S 56.863 5.394 63.733 1.869 c 0.654 -0.335 1.325 -0.597 2.001 -0.821 c -3.232 -0.234 -6.568 0.387 -9.662 1.974 c -8.995 4.615 -12.546 15.647 -7.931 24.642 s 15.647 12.546 24.642 7.931 c 5.981 -3.068 9.551 -8.974 9.918 -15.232 C 81.427 23.019 79.32 25.301 76.497 26.749 z" style="stroke: none; stroke-width: 1; stroke-dasharray: none; stroke-linecap: butt; stroke-linejoin: miter; stroke-miterlimit: 10; fill: rgb(133,229,255); fill-rule: nonzero; opacity: 1;" transform=" matrix(1 0 0 1 0 0) " stroke-linecap="round" />
	<path d="M 14.797 42.539 c -0.029 -0.436 -0.049 -0.875 -0.049 -1.318 c 0 -10.81 8.763 -19.573 19.573 -19.573 c 7.82 0 14.566 4.588 17.701 11.217 c 2.361 -1.676 5.239 -2.671 8.355 -2.671 c 7.21 0 13.169 5.281 14.265 12.182 c 4.964 1.358 8.617 5.889 8.617 11.284 c 0 6.468 -5.243 11.711 -11.711 11.711 H 18.451 c -6.468 0 -11.711 -5.243 -11.711 -11.711 C 6.74 48.47 10.121 44.075 14.797 42.539 z" style="stroke: none; stroke-width: 1; stroke-dasharray: none; stroke-linecap: butt; stroke-linejoin: miter; stroke-miterlimit: 10; fill: rgb(98,195,247); fill-rule: nonzero; opacity: 1;" transform=" matrix(1 0 0 1 0 0) " stroke-linecap="round" />
	<path d="M 61.941 80.8 c -0.553 0 -1 -0.447 -1 -1 v -8.587 c 0 -0.553 0.447 -1 1 -1 s 1 0.447 1 1 V 79.8 C 62.941 80.353 62.494 80.8 61.941 80.8 z" style="stroke: none; stroke-width: 1; stroke-dasharray: none; stroke-linecap: butt; stroke-linejoin: miter; stroke-miterlimit: 10; fill: rgb(133,229,255); fill-rule: nonzero; opacity: 1;" transform=" matrix(1 0 0 1 0 0) " stroke-linecap="round" />
	<path d="M 52.741 90 c -0.553 0 -1 -0.447 -1 -1 v -8.587 c 0 -0.553 0.447 -1 1 -1 s 1 0.447 1 1 V 89 C 53.741 89.553 53.294 90 52.741 90 z" style="stroke: none; stroke-width: 1; stroke-dasharray: none; stroke-linecap: butt; stroke-linejoin: miter; stroke-miterlimit: 10; fill: rgb(133,229,255); fill-rule: nonzero; opacity: 1;" transform=" matrix(1 0 0 1 0 0) " stroke-linecap="round" />
	<path d="M 43.541 80.8 c -0.552 0 -1 -0.447 -1 -1 v -8.587 c 0 -0.553 0.448 -1 1 -1 s 1 0.447 1 1 V 79.8 C 44.541 80.353 44.093 80.8 43.541 80.8 z" style="stroke: none; stroke-width: 1; stroke-dasharray: none; stroke-linecap: butt; stroke-linejoin: miter; stroke-miterlimit: 10; fill: rgb(133,229,255); fill-rule: nonzero; opacity: 1;" transform=" matrix(1 0 0 1 0 0) " stroke-linecap="round" />
	<path d="M 34.341 90 c -0.552 0 -1 -0.447 -1 -1 v -8.587 c 0 -0.553 0.448 -1 1 -1 s 1 0.447 1 1 V 89 C 35.341 89.553 34.893 90 34.341 90 z" style="stroke: none; stroke-width: 1; stroke-dasharray: none; stroke-linecap: butt; stroke-linejoin: miter; stroke-miterlimit: 10; fill: rgb(133,229,255); fill-rule: nonzero; opacity: 1;" transform=" matrix(1 0 0 1 0 0) " stroke-linecap="round" />
	<path d="M 25.141 80.8 c -0.552 0 -1 -0.447 -1 -1 v -8.587 c 0 -0.553 0.448 -1 1 -1 s 1 0.447 1 1 V 79.8 C 26.141 80.353 25.693 80.8 25.141 80.8 z" style="stroke: none; stroke-width: 1; stroke-dasharray: none; stroke-linecap: butt; stroke-linejoin: miter; stroke-miterlimit: 10; fill: rgb(133,229,255); fill-rule: nonzero; opacity: 1;" transform=" matrix(1 0 0 1 0 0) " stroke-linecap="round" />
</g>
</svg>