<svg xmlns="http://www.w3.org/2000/svg" xmlns:xlink="http://www.w3.org/1999/xlink" version="1.1" width="256" height="256" viewBox="0 0 256 256" xml:space="preserve">

<defs>
</defs>
<g style="stroke: none; stroke-width: 0; stroke-dasharray: none; stroke-linecap: butt; stroke-linejoin: miter; stroke-miterlimit: 10; fill: none; fill-rule: nonzero; opacity: 1;" transform="translate(1.4065934065934016 1.4065934065934016) scale(2.81 2.81)" >
	<path d="M 75.612 25.025 c -6.677 3.426 -14.867 0.79 -18.293 -5.888 c -3.426 -6.677 -0.79 -14.867 5.888 -18.293 c 0.636 -0.326 1.287 -0.58 1.945 -0.798 c -3.141 -0.228 -6.383 0.376 -9.39 1.919 c -8.742 4.485 -12.193 15.207 -7.708 23.949 s 15.207 12.193 23.949 7.708 c 5.813 -2.982 9.282 -8.722 9.639 -14.804 C 80.402 21.4 78.355 23.618 75.612 25.025 z" style="stroke: none; stroke-width: 1; stroke-dasharray: none; stroke-linecap: butt; stroke-linejoin: miter; stroke-miterlimit: 10; fill: rgb(123,216,247); fill-rule: nonzero; opacity: 1;" transform=" matrix(1 0 0 1 0 0) " stroke-linecap="round" />
	<path d="M 15.647 40.371 c -0.028 -0.424 -0.048 -0.85 -0.048 -1.281 c 0 -10.506 8.517 -19.022 19.022 -19.022 c 7.6 0 14.157 4.459 17.203 10.901 c 2.295 -1.629 5.092 -2.596 8.12 -2.596 c 7.007 0 12.799 5.133 13.864 11.84 c 4.825 1.32 8.375 5.723 8.375 10.967 c 0 6.286 -5.096 11.381 -11.381 11.381 H 19.198 c -6.286 0 -11.381 -5.096 -11.381 -11.381 C 7.817 46.135 11.102 41.864 15.647 40.371 z" style="stroke: none; stroke-width: 1; stroke-dasharray: none; stroke-linecap: butt; stroke-linejoin: miter; stroke-miterlimit: 10; fill: rgb(67,144,179); fill-rule: nonzero; opacity: 1;" transform=" matrix(1 0 0 1 0 0) " stroke-linecap="round" />
	<path d="M 24.009 73.764 h 2.697 c 0.558 0 1.011 -0.452 1.011 -1.011 s -0.453 -1.011 -1.011 -1.011 h -2.697 l 1.349 -2.337 c 0.279 -0.484 0.114 -1.102 -0.37 -1.382 c -0.486 -0.279 -1.103 -0.113 -1.382 0.37 l -1.349 2.336 l -1.349 -2.336 c -0.28 -0.485 -0.897 -0.65 -1.382 -0.37 c -0.484 0.279 -0.649 0.898 -0.37 1.382 l 1.349 2.337 h -2.698 c -0.558 0 -1.011 0.452 -1.011 1.011 s 0.453 1.011 1.011 1.011 h 2.698 L 19.156 76.1 c -0.279 0.484 -0.114 1.102 0.37 1.382 c 0.159 0.092 0.333 0.135 0.505 0.135 c 0.35 0 0.689 -0.182 0.877 -0.506 l 1.349 -2.336 l 1.349 2.336 c 0.188 0.325 0.527 0.506 0.877 0.506 c 0.171 0 0.345 -0.043 0.505 -0.135 c 0.484 -0.279 0.649 -0.898 0.37 -1.382 L 24.009 73.764 z" style="stroke: none; stroke-width: 1; stroke-dasharray: none; stroke-linecap: butt; stroke-linejoin: miter; stroke-miterlimit: 10; fill: rgb(123,216,247); fill-rule: nonzero; opacity: 1;" transform=" matrix(1 0 0 1 0 0) " stroke-linecap="round" />
	<path d="M 36.231 84.124 h -2.697 l 1.349 -2.337 c 0.279 -0.484 0.114 -1.102 -0.37 -1.382 c -0.486 -0.28 -1.103 -0.113 -1.382 0.37 l -1.349 2.336 l -1.349 -2.336 c -0.28 -0.484 -0.897 -0.651 -1.382 -0.37 c -0.484 0.279 -0.649 0.898 -0.37 1.382 l 1.349 2.337 h -2.698 c -0.558 0 -1.011 0.452 -1.011 1.011 s 0.453 1.011 1.011 1.011 h 2.698 l -1.349 2.337 c -0.279 0.484 -0.114 1.102 0.37 1.382 C 29.211 89.957 29.385 90 29.556 90 c 0.35 0 0.689 -0.182 0.877 -0.506 l 1.349 -2.336 l 1.349 2.336 C 33.318 89.819 33.658 90 34.008 90 c 0.171 0 0.345 -0.043 0.505 -0.135 c 0.484 -0.279 0.649 -0.898 0.37 -1.382 l -1.349 -2.337 h 2.697 c 0.558 0 1.011 -0.452 1.011 -1.011 S 36.79 84.124 36.231 84.124 z" style="stroke: none; stroke-width: 1; stroke-dasharray: none; stroke-linecap: butt; stroke-linejoin: miter; stroke-miterlimit: 10; fill: rgb(123,216,247); fill-rule: nonzero; opacity: 1;" transform=" matrix(1 0 0 1 0 0) " stroke-linecap="round" />
	<path d="M 47.661 71.741 h -2.698 l 1.349 -2.337 c 0.279 -0.484 0.114 -1.102 -0.37 -1.382 c -0.486 -0.279 -1.102 -0.113 -1.382 0.37 l -1.349 2.336 l -1.349 -2.336 c -0.279 -0.485 -0.897 -0.65 -1.382 -0.37 c -0.484 0.279 -0.649 0.898 -0.37 1.382 l 1.349 2.337 h -2.697 c -0.558 0 -1.011 0.452 -1.011 1.011 s 0.453 1.011 1.011 1.011 h 2.697 L 40.112 76.1 c -0.279 0.484 -0.114 1.102 0.37 1.382 c 0.159 0.092 0.333 0.135 0.505 0.135 c 0.35 0 0.689 -0.182 0.877 -0.506 l 1.349 -2.336 l 1.349 2.336 c 0.188 0.325 0.527 0.506 0.877 0.506 c 0.171 0 0.345 -0.043 0.505 -0.135 c 0.483 -0.279 0.649 -0.898 0.37 -1.382 l -1.349 -2.337 h 2.698 c 0.559 0 1.011 -0.452 1.011 -1.011 S 48.22 71.741 47.661 71.741 z" style="stroke: none; stroke-width: 1; stroke-dasharray: none; stroke-linecap: butt; stroke-linejoin: miter; stroke-miterlimit: 10; fill: rgb(123,216,247); fill-rule: nonzero; opacity: 1;" transform=" matrix(1 0 0 1 0 0) " stroke-linecap="round" />
	<path d="M 59.092 84.124 h -2.698 l 1.349 -2.337 c 0.279 -0.484 0.114 -1.102 -0.37 -1.382 c -0.483 -0.279 -1.102 -0.114 -1.382 0.37 l -1.348 2.336 l -1.348 -2.336 c -0.28 -0.485 -0.9 -0.65 -1.382 -0.37 c -0.484 0.279 -0.65 0.898 -0.37 1.382 l 1.349 2.337 h -2.698 c -0.559 0 -1.011 0.452 -1.011 1.011 s 0.452 1.011 1.011 1.011 h 2.698 l -1.349 2.337 c -0.279 0.484 -0.114 1.102 0.37 1.382 C 52.072 89.957 52.246 90 52.417 90 c 0.35 0 0.689 -0.182 0.877 -0.506 l 1.348 -2.336 l 1.348 2.336 C 56.179 89.819 56.519 90 56.868 90 c 0.172 0 0.346 -0.043 0.505 -0.135 c 0.484 -0.279 0.65 -0.898 0.37 -1.382 l -1.349 -2.337 h 2.698 c 0.559 0 1.011 -0.452 1.011 -1.011 S 59.651 84.124 59.092 84.124 z" style="stroke: none; stroke-width: 1; stroke-dasharray: none; stroke-linecap: butt; stroke-linejoin: miter; stroke-miterlimit: 10; fill: rgb(123,216,247); fill-rule: nonzero; opacity: 1;" transform=" matrix(1 0 0 1 0 0) " stroke-linecap="round" />
	<path d="M 68.617 71.741 H 65.92 l 1.349 -2.337 c 0.279 -0.484 0.114 -1.102 -0.37 -1.382 c -0.484 -0.278 -1.102 -0.116 -1.382 0.37 l -1.349 2.336 l -1.349 -2.336 c -0.28 -0.486 -0.9 -0.649 -1.382 -0.37 c -0.484 0.279 -0.65 0.898 -0.37 1.382 l 1.349 2.337 h -2.698 c -0.559 0 -1.011 0.452 -1.011 1.011 s 0.452 1.011 1.011 1.011 h 2.698 L 61.067 76.1 c -0.279 0.484 -0.114 1.102 0.37 1.382 c 0.159 0.092 0.333 0.135 0.505 0.135 c 0.35 0 0.689 -0.181 0.877 -0.506 l 1.349 -2.336 l 1.349 2.336 c 0.188 0.325 0.527 0.506 0.877 0.506 c 0.172 0 0.346 -0.043 0.505 -0.135 c 0.484 -0.279 0.65 -0.898 0.37 -1.382 l -1.349 -2.337 h 2.697 c 0.559 0 1.011 -0.452 1.011 -1.011 S 69.176 71.741 68.617 71.741 z" style="stroke: none; stroke-width: 1; stroke-dasharray: none; stroke-linecap: butt; stroke-linejoin: miter; stroke-miterlimit: 10; fill: rgb(123,216,247); fill-rule: nonzero; opacity: 1;" transform=" matrix(1 0 0 1 0 0) " stroke-linecap="round" />
</g>
</svg>