<svg xmlns="http://www.w3.org/2000/svg" xmlns:xlink="http://www.w3.org/1999/xlink" version="1.1" width="256" height="256" viewBox="0 0 256 256" xml:space="preserve">

<defs>
</defs>
<g style="stroke: none; stroke-width: 0; stroke-dasharray: none; stroke-linecap: butt; stroke-linejoin: miter; stroke-miterlimit: 10; fill: none; fill-rule: nonzero; opacity: 1;" transform="translate(1.4065934065934016 1.4065934065934016) scale(2.81 2.81)" >
	<path d="M 9.476 35.663 c -0.034 -0.513 -0.058 -1.029 -0.058 -1.55 c 0 -12.714 10.307 -23.021 23.021 -23.021 c 9.198 0 17.133 5.396 20.82 13.193 c 2.777 -1.972 6.162 -3.142 9.827 -3.142 c 8.48 0 15.49 6.212 16.778 14.329 C 85.703 37.07 90 42.399 90 48.744 c 0 7.607 -6.167 13.774 -13.774 13.774 H 13.774 C 6.167 62.518 0 56.351 0 48.744 C 0 42.639 3.976 37.47 9.476 35.663 z" style="stroke: none; stroke-width: 1; stroke-dasharray: none; stroke-linecap: butt; stroke-linejoin: miter; stroke-miterlimit: 10; fill: rgb(98,195,247); fill-rule: nonzero; opacity: 1;" transform=" matrix(1 0 0 1 0 0) " stroke-linecap="round" />
	<polyline points="37.38,41.94 32.02,56.79 39.43,56.79 31.68,78.91 58.32,50.3 49.07,50.51 54.6,41.94 37.38,41.94 " style="stroke: none; stroke-width: 1; stroke-dasharray: none; stroke-linecap: butt; stroke-linejoin: miter; stroke-miterlimit: 10; fill: rgb(249,193,0); fill-rule: nonzero; opacity: 1;" transform="  matrix(1 0 0 1 0 0) "/>
</g>
</svg>