<svg xmlns="http://www.w3.org/2000/svg" xmlns:xlink="http://www.w3.org/1999/xlink" version="1.1" width="256" height="256" viewBox="0 0 256 256" xml:space="preserve">

<defs>
</defs>
<g style="stroke: none; stroke-width: 0; stroke-dasharray: none; stroke-linecap: butt; stroke-linejoin: miter; stroke-miterlimit: 10; fill: none; fill-rule: nonzero; opacity: 1;" transform="translate(1.4065934065934016 1.4065934065934016) scale(2.81 2.81)" >
	<path d="M 71.682 34.024 c -7.045 3.614 -15.685 0.833 -19.299 -6.212 S 51.55 12.128 58.595 8.514 c 0.67 -0.344 1.358 -0.612 2.052 -0.842 c -3.314 -0.24 -6.734 0.397 -9.906 2.024 c -9.223 4.731 -12.864 16.044 -8.132 25.267 s 16.044 12.864 25.267 8.132 c 6.132 -3.146 9.793 -9.202 10.169 -15.618 C 76.737 30.2 74.577 32.54 71.682 34.024 z" style="stroke: none; stroke-width: 1; stroke-dasharray: none; stroke-linecap: butt; stroke-linejoin: miter; stroke-miterlimit: 10; fill: rgb(133,229,255); fill-rule: nonzero; opacity: 1;" transform=" matrix(1 0 0 1 0 0) " stroke-linecap="round" />
	<path d="M 9.476 55.523 c -0.034 -0.513 -0.058 -1.029 -0.058 -1.55 c 0 -12.714 10.307 -23.021 23.021 -23.021 c 9.198 0 17.133 5.396 20.82 13.193 c 2.777 -1.972 6.162 -3.142 9.827 -3.142 c 8.48 0 15.49 6.212 16.778 14.329 C 85.703 56.929 90 62.258 90 68.603 c 0 7.607 -6.167 13.774 -13.774 13.774 H 13.774 C 6.167 82.377 0 76.21 0 68.603 C 0 62.498 3.976 57.329 9.476 55.523 z" style="stroke: none; stroke-width: 1; stroke-dasharray: none; stroke-linecap: butt; stroke-linejoin: miter; stroke-miterlimit: 10; fill: rgb(98,195,247); fill-rule: nonzero; opacity: 1;" transform=" matrix(1 0 0 1 0 0) " stroke-linecap="round" />
</g>
</svg>