<svg xmlns="http://www.w3.org/2000/svg" xmlns:xlink="http://www.w3.org/1999/xlink" version="1.1" width="256" height="256" viewBox="0 0 256 256" xml:space="preserve">

<defs>
</defs>
<g style="stroke: none; stroke-width: 0; stroke-dasharray: none; stroke-linecap: butt; stroke-linejoin: miter; stroke-miterlimit: 10; fill: none; fill-rule: nonzero; opacity: 1;" transform="translate(1.4065934065934016 1.4065934065934016) scale(2.81 2.81)" >
	<path d="M 6.519 32.467 c -0.024 -0.353 -0.04 -0.708 -0.04 -1.067 c 0 -8.746 7.09 -15.836 15.836 -15.836 c 6.327 0 11.786 3.712 14.322 9.076 c 1.91 -1.356 4.239 -2.161 6.76 -2.161 c 5.833 0 10.655 4.273 11.542 9.857 c 4.016 1.099 6.972 4.765 6.972 9.13 c 0 5.233 -4.242 9.475 -9.475 9.475 H 9.475 C 4.242 50.94 0 46.698 0 41.465 C 0 37.266 2.735 33.71 6.519 32.467 z" style="stroke: none; stroke-width: 1; stroke-dasharray: none; stroke-linecap: butt; stroke-linejoin: miter; stroke-miterlimit: 10; fill: rgb(88,155,211); fill-rule: nonzero; opacity: 1;" transform=" matrix(1 0 0 1 0 0) " stroke-linecap="round" />
	<path d="M 83.655 37.239 c -7.027 3.605 -15.645 0.831 -19.25 -6.196 c -3.605 -7.027 -0.831 -15.645 6.196 -19.25 c 0.669 -0.343 1.355 -0.61 2.047 -0.84 c -3.306 -0.24 -6.717 0.396 -9.881 2.019 c -9.199 4.719 -12.831 16.003 -8.112 25.202 s 16.003 12.831 25.202 8.112 c 6.117 -3.138 9.768 -9.178 10.143 -15.578 C 88.696 33.423 86.542 35.758 83.655 37.239 z" style="stroke: none; stroke-width: 1; stroke-dasharray: none; stroke-linecap: butt; stroke-linejoin: miter; stroke-miterlimit: 10; fill: rgb(133,229,255); fill-rule: nonzero; opacity: 1;" transform=" matrix(1 0 0 1 0 0) " stroke-linecap="round" />
	<path d="M 14.093 55.395 c -0.03 -0.453 -0.051 -0.908 -0.051 -1.368 c 0 -11.221 9.096 -20.317 20.317 -20.317 c 8.118 0 15.121 4.762 18.375 11.644 c 2.451 -1.74 5.439 -2.773 8.673 -2.773 c 7.484 0 13.671 5.482 14.808 12.646 c 5.153 1.41 8.945 6.113 8.945 11.714 c 0 6.714 -5.443 12.156 -12.156 12.156 H 17.886 c -6.714 0 -12.156 -5.443 -12.156 -12.156 C 5.73 61.552 9.239 56.99 14.093 55.395 z" style="stroke: none; stroke-width: 1; stroke-dasharray: none; stroke-linecap: butt; stroke-linejoin: miter; stroke-miterlimit: 10; fill: rgb(98,195,247); fill-rule: nonzero; opacity: 1;" transform=" matrix(1 0 0 1 0 0) " stroke-linecap="round" />
</g>
</svg>